<svg id="Capa_1" data-name="Capa 1" xmlns="http://www.w3.org/2000/svg" viewBox="0 0 98 98"><defs><style>.cls-1{fill:#f1f2f2;}</style></defs><path class="cls-1" d="M.19,29a15.06,15.06,0,0,1,1.43-4,10.9,10.9,0,0,1,9.92-5.69h14c.46,0,1,.15,1-.64A8.56,8.56,0,0,1,35.4,10.6c9.14,0,18.27,0,27.41,0a8.38,8.38,0,0,1,8.5,6.46,4.48,4.48,0,0,1,.12.46c.29,1.78.29,1.78,2.06,1.78,4.42,0,8.85,0,13.27,0a11.07,11.07,0,0,1,10.95,8.51A12.08,12.08,0,0,1,98,30.78C98,45.9,97.93,61,98,76.14c0,5.45-4.22,11.58-11.38,11.46-3.35-.06-6.69,0-10,0q-32.38,0-64.76,0A11.36,11.36,0,0,1,1.64,82a13.83,13.83,0,0,1-1.45-4.1ZM49.07,82.67H53q16.65,0,33.32,0c3.94,0,6.17-1.93,6.74-5.78a41.46,41.46,0,0,0,.12-6q0-20,0-39.92a6.42,6.42,0,0,0-2.49-5.51,7,7,0,0,0-4.42-1.2c-5.6,0-11.2,0-16.81,0a2.56,2.56,0,0,1-2.8-2.77c0-.51,0-1,0-1.53.21-2.68-1.09-4.59-4.56-4.54-8.08.11-16.17,0-24.25,0-1,0-2,0-3,0a3.33,3.33,0,0,0-3.22,3.07c-.08.86-.06,1.72-.07,2.58,0,2.2-.95,3.14-3.12,3.14-5.67,0-11.34,0-17,0a6,6,0,0,0-6.36,6.35q0,22.82,0,45.64a6.14,6.14,0,0,0,6.7,6.42Z"/><path class="cls-1" d="M72,53.52A22.88,22.88,0,1,1,49.19,30.59,22.92,22.92,0,0,1,72,53.52Zm-5,.17A17.83,17.83,0,1,0,49.08,71.42,17.78,17.78,0,0,0,66.93,53.69Z"/><path class="cls-1" d="M82.17,39.58a4.53,4.53,0,1,1,4.57-4.52A4.53,4.53,0,0,1,82.17,39.58Z"/></svg>