<svg id="Capa_1" data-name="Capa 1" xmlns="http://www.w3.org/2000/svg" viewBox="0 0 55.69 62.86"><defs><style>.cls-1{fill:#212121;}</style></defs><path class="cls-1" d="M0,33.24c.26-7.63,4-15.11,11.36-20.73a4.39,4.39,0,0,1,7.16,4.06,4.69,4.69,0,0,1-2,3.09A19,19,0,0,0,8.85,33.49c-.92,9.42,6.23,18.74,15.56,20.23,10.77,1.71,20.44-5,22.18-15.69,1.21-7.4-1.39-13.5-7.21-18.2a5.05,5.05,0,0,1-2.22-3.24,4.25,4.25,0,0,1,2-4.43,4.35,4.35,0,0,1,5.05.27,27.32,27.32,0,0,1,8.55,10.11A27.88,27.88,0,0,1,32,62.53C15.25,65.15-.26,51.74,0,33.24Z"/><path class="cls-1" d="M32.25,16.88c0,4.13,0,8.27,0,12.4A4.39,4.39,0,0,1,24.38,32a4.47,4.47,0,0,1-.95-2.85c0-8.18,0-16.37,0-24.55a4.4,4.4,0,1,1,8.8,0C32.27,8.7,32.25,12.79,32.25,16.88Z"/></svg>