<svg id="Capa_1" data-name="Capa 1" xmlns="http://www.w3.org/2000/svg" viewBox="0 0 98 98"><defs><style>.cls-1{fill:#f1f2f2;}</style></defs><path class="cls-1" d="M46.42.19h5.92a5,5,0,0,0,1.87.23A47.5,47.5,0,0,1,81.38,12.3c12.33,11.09,17.74,25,16.35,41.52a45,45,0,0,1-7.78,22C79,91.73,63.79,99.23,44.46,97.72A46.1,46.1,0,0,1,18.34,86.85,48.79,48.79,0,0,1,.92,57.23c-.33-1.81-.4-3.65-.73-5.46V46a6.11,6.11,0,0,0,.17-.83A44.62,44.62,0,0,1,4.85,28.28Q16.06,5.79,40.77,1C42.63.6,44.54.44,46.42.19Zm15.1,51.56c-2.86,0-5.72,0-8.58,0-.52,0-.81,0-.8.7q0,8.1,0,16.21c0,.54.14.71.69.71q6.74,0,13.45,0a.83.83,0,0,0,.91-.61,54.78,54.78,0,0,0,3.67-16.2c0-.62-.1-.82-.75-.82C67.25,51.77,64.38,51.75,61.52,51.75ZM37,51.77c-2.83,0-5.66,0-8.5,0-.65,0-.87.13-.82.83a55.12,55.12,0,0,0,3.66,16.12.9.9,0,0,0,1,.65c4.43,0,8.85,0,13.27,0,.61,0,.82-.13.82-.78q0-8,0-16c0-.65-.21-.79-.82-.78C42.76,51.79,39.9,51.77,37,51.77ZM61.41,46H70.1c.42,0,.79.08.74-.61A56.58,56.58,0,0,0,67.2,29.5a.87.87,0,0,0-1-.67q-6.67,0-13.36,0c-.6,0-.74.18-.74.76,0,5.22,0,10.43,0,15.65,0,.72.25.82.87.81C55.81,46,58.61,46,61.41,46ZM37,46c2.83,0,5.66,0,8.49,0,.7,0,.91-.15.91-.89q-.06-7.72,0-15.46c0-.73-.21-.89-.91-.88q-6.54,0-13.07,0c-.68,0-.91.25-1.14.83a55.7,55.7,0,0,0-3.57,15.65c-.05.63.12.75.7.74C31.31,46,34.17,46,37,46Zm-22.9,5.73c-2.39,0-4.78,0-7.16,0-.77,0-1,.2-.89,1a43.69,43.69,0,0,0,4.68,16.1.91.91,0,0,0,1,.54c4.3,0,8.6,0,12.89,0,.81,0,.79-.26.57-.86a58.87,58.87,0,0,1-3.19-16c0-.61-.26-.72-.81-.71C18.85,51.78,16.49,51.77,14.14,51.77ZM14,46c2.41,0,4.83,0,7.25,0,.56,0,.76-.13.8-.72.09-1.43.24-2.85.43-4.27a58.22,58.22,0,0,1,2.78-11.55c.2-.55.1-.7-.5-.7q-6.57,0-13.16,0a.85.85,0,0,0-.9.49A43.23,43.23,0,0,0,6.09,45.14c-.07.82.22.92.92.91C9.34,46,11.66,46,14,46Zm59.14,23.3H86.69a.72.72,0,0,0,.73-.46A43.71,43.71,0,0,0,92.11,52.5c.06-.71-.24-.76-.8-.76-4.61,0-9.22,0-13.84,0-.62,0-.87.11-.91.8a61.41,61.41,0,0,1-1.49,10.18C74.55,64.91,73.84,67.05,73.12,69.34Zm.12-40.49c0,.15,0,.22,0,.27a61.21,61.21,0,0,1,3.35,16.37c0,.68.47.55.86.55,4.61,0,9.22,0,13.83,0,.7,0,.92-.14.85-.89a43.23,43.23,0,0,0-4.55-15.83c-.25-.48-.58-.49-1-.49H73.24ZM39.57,7.08c-9.19,1.82-22.28,10.33-24.73,16,4.06,0,8.09,0,12.13,0a1.29,1.29,0,0,0,1.38-.83A54.66,54.66,0,0,1,35.94,11C37.09,9.71,38.3,8.46,39.57,7.08Zm-.06,84a1.26,1.26,0,0,0-.13-.25A56.57,56.57,0,0,1,28.2,75.6a.93.93,0,0,0-1-.53H15.37c-.14,0-.32-.06-.42.12A42.58,42.58,0,0,0,39.51,91.08Zm44.12-68A43.38,43.38,0,0,0,59,7c.28.32.43.51.6.68a57.41,57.41,0,0,1,9.7,12.7c.5.88.69,2.16,1.53,2.56s2,.13,3.1.13Zm-24.72,68A43.37,43.37,0,0,0,83.5,75.05h-1c-3.63,0-7.26,0-10.88,0a1.3,1.3,0,0,0-1.37.86,56.16,56.16,0,0,1-7.27,10.93C61.71,88.27,60.37,89.62,58.91,91.15ZM46.42,8.78a52.19,52.19,0,0,0-12,14.33H45.9c.43,0,.53-.17.53-.56C46.42,18,46.42,13.53,46.42,8.78ZM64.06,23.12C61.87,18.64,55.31,10.85,52.22,9a1.22,1.22,0,0,0-.06.26c0,4.42,0,8.84,0,13.26,0,.52.19.63.67.62,1.59,0,3.18,0,4.77,0Zm-29.61,52a52.07,52.07,0,0,0,12,14.32c0-4.74,0-9.25,0-13.76,0-.4-.1-.57-.53-.57Zm29.66,0c-3.84,0-7.47,0-11.09,0-.73,0-.89.21-.88.9,0,4.2,0,8.4,0,12.6,0,.23-.13.5.17.72A52.08,52.08,0,0,0,64.11,75.05Z"/></svg>