<svg id="Capa_1" data-name="Capa 1" xmlns="http://www.w3.org/2000/svg" viewBox="0 0 98 98"><defs><style>.cls-1{fill:#f1f2f2;}</style></defs><path class="cls-1" d="M.19,60.94c.19-1.77.35-3.54.58-5.3C2,46.58,3.91,37.73,8.16,29.54a27,27,0,0,1,7.59-9.44,15.69,15.69,0,0,1,10.69-3,65.93,65.93,0,0,1,11.14,2.11,79.11,79.11,0,0,0,10.47,2.07,23.24,23.24,0,0,0,6.7-.73c4.5-.87,8.88-2.23,13.38-3.07a19,19,0,0,1,11,.69,19,19,0,0,1,7.69,6.24c3.83,4.91,6,10.61,7.65,16.51A82.7,82.7,0,0,1,98,65.26c-.06,3.67-.38,7.31-2,10.69a8.61,8.61,0,0,1-9.79,5,24.08,24.08,0,0,1-9.5-4.25,50.31,50.31,0,0,1-7.76-6.17c-4.46-4.52-10-6.38-16.11-6.93a36.84,36.84,0,0,0-15.35,1.69,20,20,0,0,0-7,4.3,68.17,68.17,0,0,1-10.7,8.29A21.62,21.62,0,0,1,12.26,81,8.89,8.89,0,0,1,1.89,75.22a22.23,22.23,0,0,1-1.5-7.06,5,5,0,0,0-.2-1.49Zm4.53,1.91c0,4.37.14,7.35,1.17,10.21s3,4,5.87,3.35a18.58,18.58,0,0,0,5.75-2.47,69.65,69.65,0,0,0,10.2-8,23.29,23.29,0,0,1,7.83-4.64,40.15,40.15,0,0,1,25.13-.64A22.54,22.54,0,0,1,70,65.86,70.42,70.42,0,0,0,78.78,73a20.68,20.68,0,0,0,7.9,3.65,4.31,4.31,0,0,0,5.11-2.53,17.69,17.69,0,0,0,1.61-7.3,79,79,0,0,0-3.16-24.31,43.63,43.63,0,0,0-6.79-15c-3.23-4.3-7.47-6.38-12.91-5.82A73.17,73.17,0,0,0,58.8,24.2a35.23,35.23,0,0,1-18.92.12,77.82,77.82,0,0,0-11.81-2.63A13.23,13.23,0,0,0,17,25.08a26.55,26.55,0,0,0-6.23,9.5A79.37,79.37,0,0,0,4.72,62.85Z"/><path class="cls-1" d="M39.94,42.8a7,7,0,0,1-5.66,6.76,1,1,0,0,0-.93.93,7.18,7.18,0,0,1-7,5.67,7,7,0,0,1-6.88-5.86c-.11-.63-.48-.63-.92-.72A7,7,0,0,1,13.8,39.07a6.76,6.76,0,0,1,4.76-3.35c.5-.09.83-.19,1-.82a7.06,7.06,0,0,1,13.85-.12c.12.6.32.84.93.95A7.11,7.11,0,0,1,39.94,42.8Zm-4.39-.14a2.43,2.43,0,0,0-2.41-2.55c-.5,0-1,0-1.52,0A2.41,2.41,0,0,1,29,37.48a9.29,9.29,0,0,0-.11-1.9,2.43,2.43,0,0,0-2.66-2.06A2.49,2.49,0,0,0,23.88,36c0,.45,0,.89,0,1.34a2.44,2.44,0,0,1-2.62,2.71c-.57,0-1.14,0-1.71,0a2.39,2.39,0,0,0-2.22,2.52,2.45,2.45,0,0,0,2.37,2.4c.53,0,1.08,0,1.62,0a2.39,2.39,0,0,1,2.55,2.47c0,.51,0,1,0,1.53a2.56,2.56,0,0,0,5.11.18c.05-.54,0-1.08,0-1.62a2.29,2.29,0,0,1,2.3-2.41c.69,0,1.4,0,2.09-.09A2.38,2.38,0,0,0,35.55,42.66Z"/><path class="cls-1" d="M70.27,29.76A4.24,4.24,0,1,1,66.06,34,4.19,4.19,0,0,1,70.27,29.76Z"/><path class="cls-1" d="M61.55,46.88a4.24,4.24,0,1,1,4.35-4.14A4.26,4.26,0,0,1,61.55,46.88Z"/><path class="cls-1" d="M74.69,42.61a4.25,4.25,0,1,1,4.22,4.28A4.27,4.27,0,0,1,74.69,42.61Z"/><path class="cls-1" d="M74.53,51.25A4.24,4.24,0,1,1,70.26,47,4.27,4.27,0,0,1,74.53,51.25Z"/></svg>