<svg id="Capa_1" data-name="Capa 1" xmlns="http://www.w3.org/2000/svg" viewBox="0 0 98 98"><defs><style>.cls-1{fill:#f1f2f2;}</style></defs><path class="cls-1" d="M89.24,11.57V77.14a1.84,1.84,0,0,0-.15.36,10.87,10.87,0,0,1-3.51,6.23c-5.86,5.39-16.12,5.68-22.27.59-3-2.49-4.71-5.62-4.24-9.63a11,11,0,0,1,5.68-8.3,17.49,17.49,0,0,1,17.59-.59c.49.24.86.55.86-.4q0-16.92,0-33.85c0-.56-.09-.75-.73-.67-4.16.49-8.33.93-12.5,1.39L53,34.16c-5.75.64-11.51,1.29-17.26,1.9-.78.09-1,.29-1,1.13q0,22.07,0,44.12a10.76,10.76,0,0,1-.87,4.59c-1.77,3.81-4.9,6-8.76,7.29-1.23.41-2.52.51-3.77.83H17.88a.8.8,0,0,0-.54-.15,16.54,16.54,0,0,1-7.19-2.52c-3-2-5.17-4.6-5.58-8.29a10.17,10.17,0,0,1,4.6-9.84c5.71-4.11,11.86-4.45,18.22-1.58,1.31.59,1.29.64,1.29-.82V19c0-2.43.93-3.5,3.32-3.77l23.91-2.66,29-3.2C87.41,9.11,88.12,9.46,89.24,11.57Z"/></svg>