<svg id="Capa_1" data-name="Capa 1" xmlns="http://www.w3.org/2000/svg" viewBox="0 0 98 98"><defs><style>.cls-1{fill:#f1f2f2;}</style></defs><path class="cls-1" d="M.19,25.6C1,23.94,2.26,23.45,4,23.47c7.19.07,14.39,0,21.58,0C28,23.5,29,24.57,29,26.94V71.63C29,74,28,75.08,25.62,75.08c-7.19,0-14.39,0-21.58,0C2.26,75.12,1,74.63.19,73ZM14.62,57.88c2.61,0,5.22,0,7.82,0,.62,0,.89-.09.89-.81q0-7.83,0-15.65c0-.58-.14-.76-.74-.75q-8,0-15.94,0c-.6,0-.73.18-.73.75q0,7.83,0,15.65c0,.62.15.82.79.81C9.34,57.86,12,57.88,14.62,57.88ZM8.86,35c.79,0,1.59,0,2.38,0,.44,0,.62-.11.62-.59,0-1.52,0-3.05,0-4.57,0-.47-.17-.59-.61-.59q-2.34,0-4.68,0c-.48,0-.67.11-.66.63,0,1.49,0,3,0,4.48,0,.52.18.66.66.64C7.33,34.93,8.1,35,8.86,35Zm0,34.38c.79,0,1.59,0,2.38,0,.42,0,.64-.08.63-.57,0-1.52,0-3,0-4.58,0-.45-.14-.61-.6-.6q-2.38,0-4.77,0c-.38,0-.58.08-.57.52q0,2.34,0,4.68c0,.41.12.56.54.55C7.26,69.33,8.05,69.34,8.85,69.34ZM23.24,32.19h.07c0-.76,0-1.53,0-2.29,0-.56-.18-.69-.71-.68-1.46,0-2.92,0-4.38,0-.48,0-.67.12-.66.64q0,2.23,0,4.47c0,.52.18.66.66.64.76,0,1.53,0,2.29,0,.91,0,2.12.41,2.63-.19S23.24,33.07,23.24,32.19Zm.07,34.43c0-.89,0-1.63,0-2.36,0-.47-.11-.67-.63-.66-1.49,0-3,0-4.48,0-.51,0-.66.17-.64.66,0,.73,0,1.46,0,2.19,0,.94-.41,2.16.18,2.74s1.76.14,2.67.15,2.14.31,2.67-.15S23.21,67.39,23.31,66.62Z"/><path class="cls-1" d="M28.27,98.19a3.57,3.57,0,0,1-2.12-3.85c.1-2.09.05-4.2,0-6.3a3.9,3.9,0,0,1,1.08-2.85c2.36-2.58,4.69-5.2,7.05-7.79a1.75,1.75,0,0,0,.49-1.27q0-26.83,0-53.67a1.72,1.72,0,0,0-.49-1.27c-2.35-2.59-4.68-5.21-7-7.79a3.93,3.93,0,0,1-1.09-2.85c0-2.32,0-4.65,0-7a2.92,2.92,0,0,1,3.2-3.2H45.89a2.9,2.9,0,0,1,3.2,3.19c0,2.33,0,4.65,0,7A3.91,3.91,0,0,1,48,13.39c-2.34,2.56-4.64,5.16-7,7.72a1.83,1.83,0,0,0-.55,1.34q0,26.84,0,53.67a1.76,1.76,0,0,0,.5,1.27c2.33,2.57,4.63,5.17,7,7.73a4.07,4.07,0,0,1,1.14,3c0,2.06-.09,4.14,0,6.2A3.58,3.58,0,0,1,47,98.19ZM37.59,6.11c-1.65,0-3.31,0-5,0-.6,0-.77.18-.74.75.05.86,0,1.72,0,2.58a1.26,1.26,0,0,0,.34.94c1.65,1.81,3.3,3.63,4.91,5.47.37.41.58.43,1,0a38.47,38.47,0,0,1,3.27-3.59A5.69,5.69,0,0,0,43.4,7c-.09-.74-.27-.88-.94-.86C40.84,6.14,39.21,6.11,37.59,6.11Zm-.05,86.35c1,0,2,0,3.05,0s2.07.29,2.58-.16.15-1.73.19-2.64A1.84,1.84,0,0,0,43,88.15c-1.65-1.76-3.26-3.57-4.85-5.39-.41-.46-.63-.45-1,0a38.59,38.59,0,0,1-3.27,3.6,5.57,5.57,0,0,0-2,5.3c.08.58.14.82.79.81C34.29,92.43,35.91,92.46,37.54,92.46Z"/><path class="cls-1" d="M72.12,23.5H94.57c2.36,0,3.43,1.07,3.43,3.44v44.7c0,2.36-1.08,3.44-3.44,3.44H49.67c-2.35,0-3.43-1.09-3.43-3.45q0-22.35,0-44.7c0-2.36,1.07-3.43,3.44-3.43ZM72,57.88c6.46,0,12.91,0,19.37,0,.72,0,.9-.19.9-.9,0-5.12,0-10.24,0-15.36,0-.72-.14-1-.92-1q-19.23,0-38.47,0c-.74,0-1,.19-.94.94q0,7.64,0,15.28c0,.77.17,1,1,1C59.29,57.86,65.65,57.88,72,57.88Zm17.19-23V35h2.48c.37,0,.59-.05.59-.51,0-1.58,0-3.17,0-4.76,0-.4-.19-.47-.52-.47-1.62,0-3.24,0-4.86,0-.43,0-.55.16-.54.56,0,.76,0,1.53,0,2.29,0,.94-.42,2.19.19,2.72S88.3,34.89,89.21,34.89Zm.06,34.45c.8,0,1.59,0,2.39,0,.43,0,.63-.09.62-.57,0-1.53,0-3,0-4.58,0-.44-.13-.61-.6-.6-1.58,0-3.17,0-4.76,0-.38,0-.58.09-.57.53,0,1.55,0,3.11,0,4.67,0,.41.13.56.54.55C87.69,69.33,88.48,69.34,89.27,69.34ZM57.7,32.14c0-.76,0-1.53,0-2.29,0-.51-.18-.64-.66-.63-1.46,0-2.93,0-4.39,0-.52,0-.72.13-.71.68,0,1.46,0,2.93,0,4.39,0,.56.19.69.72.68q2.19,0,4.38,0c.49,0,.68-.12.66-.64C57.67,33.6,57.7,32.87,57.7,32.14Zm8.59-2.85v-.06c-.73,0-1.46,0-2.19,0-.57,0-.69.19-.68.71q0,2.19,0,4.38c0,.5.13.67.64.66,1.49,0,3,0,4.48,0,.52,0,.65-.19.63-.67,0-.73,0-1.46,0-2.19,0-.94.41-2.19-.19-2.72S67.21,29.29,66.29,29.29Zm14.33,3c0-.93,0-1.69,0-2.45,0-.39-.1-.57-.53-.57-1.56,0-3.12,0-4.67,0-.42,0-.56.15-.55.56,0,.76,0,1.52,0,2.28,0,.94-.41,2.16.18,2.75s1.76.13,2.67.14,2.13.31,2.67-.15S80.52,33,80.62,32.24Zm-23,34.33h.07c0-.79,0-1.58,0-2.38,0-.46-.15-.6-.6-.59-1.49,0-3,0-4.48,0-.48,0-.67.12-.66.63,0,1.5,0,3,0,4.48,0,.52.17.66.65.64.77,0,1.53,0,2.29,0,.91,0,2.12.41,2.64-.19S57.63,67.46,57.63,66.57Zm11.46-.09h.07c0-.76,0-1.53,0-2.29,0-.46-.16-.6-.61-.59-1.52,0-3,0-4.57,0-.4,0-.57.11-.57.54,0,1.56,0,3.11,0,4.67,0,.42.16.55.56.54.76,0,1.53,0,2.29,0,.94,0,2.2.41,2.73-.2S69.09,67.4,69.09,66.48Zm5.8-.14c0,.89,0,1.63,0,2.35,0,.49.12.68.64.67,1.49,0,3,0,4.48,0,.52,0,.65-.19.63-.67,0-.73,0-1.46,0-2.19,0-.94.41-2.19-.19-2.73s-1.75-.17-2.66-.16-2.12-.39-2.68.15S75,65.56,74.89,66.34Z"/></svg>