<svg id="Capa_1" data-name="Capa 1" xmlns="http://www.w3.org/2000/svg" viewBox="0 0 55.69 41.79"><defs><style>.cls-1{fill:#212121;}</style></defs><path class="cls-1" d="M28.24,0A34.9,34.9,0,0,1,54.58,11.58a3.71,3.71,0,1,1-5.27,5.21,31.88,31.88,0,0,0-9.4-6.93A28,28,0,0,0,8.7,15.29c-.77.77-1.52,1.56-2.31,2.3a3.72,3.72,0,0,1-5.28,0,3.68,3.68,0,0,1,0-5.27C7.59,5.29,15.45.93,25.09.05,26.13,0,27.19,0,28.24,0Z"/><path class="cls-1" d="M42.25,28.12a4.34,4.34,0,0,1-3.33-1.58,15,15,0,0,0-6.31-4.29A12.88,12.88,0,0,0,19.73,25c-.9.78-1.7,1.68-2.57,2.51a4.09,4.09,0,1,1-5.78-5.77c2.79-2.95,5.77-5.63,9.71-7C29.53,11.9,37,13.63,43.5,19.63a16.57,16.57,0,0,1,1.87,2,3.79,3.79,0,0,1,.46,4.28A3.87,3.87,0,0,1,42.25,28.12Z"/><path class="cls-1" d="M21.49,35.23a6.49,6.49,0,1,1,6.41,6.56A6.44,6.44,0,0,1,21.49,35.23Z"/></svg>