<svg id="Capa_1" data-name="Capa 1" xmlns="http://www.w3.org/2000/svg" viewBox="0 0 62.63 55.5"><defs><style>.cls-1{fill:#414042;}</style></defs><path class="cls-1" d="M23.48,3.68c1,.19,2,.4,2.95.64q5.73,1.39,11.31,3.3a27.42,27.42,0,0,1,4.81,2.11,14,14,0,0,1,3.24,2.48,10.87,10.87,0,0,1,2.56,4.65,18.67,18.67,0,0,1,.55,3.33c.06.81.09,1.63.08,2.46A13.79,13.79,0,0,1,48.3,27a7.42,7.42,0,0,1-1.82,3,5.81,5.81,0,0,1-3.72,1.65,9.5,9.5,0,0,1-4.25-.76l-.66-.29a.25.25,0,0,1-.19-.31,1,1,0,0,0,0-.17V15.59a8.18,8.18,0,0,0-.2-2,3.17,3.17,0,0,0-.32-.82,2.35,2.35,0,0,0-1.74-1.2,1.23,1.23,0,0,0-1.19.46,2.53,2.53,0,0,0-.49,1.08,4.22,4.22,0,0,0-.11.93V51.5a1.06,1.06,0,0,1,0,.31.56.56,0,0,1-.29-.06l-9.62-3c-.23-.07-.23-.07-.23-.32V4A.91.91,0,0,1,23.48,3.68Z"/><path class="cls-1" d="M35.54,41.47V35.69a.48.48,0,0,0,0-.12.19.19,0,0,1,.17-.22L37,34.93a42.18,42.18,0,0,1,5.33-1.16,32.35,32.35,0,0,1,15.46,1.47,19,19,0,0,1,2.26.91,6.42,6.42,0,0,1,1.48,1,3.3,3.3,0,0,1,.74.92,2.09,2.09,0,0,1,0,2,3.21,3.21,0,0,1-.59.78,8.76,8.76,0,0,1-2,1.42,20.29,20.29,0,0,1-3,1.27L35.85,51.06a.68.68,0,0,1-.28.07c0-.08,0-.16,0-.24,0-1.78,0-3.56,0-5.35,0-.29,0-.24.25-.34l16-5.7a5,5,0,0,0,1.07-.5,1.62,1.62,0,0,0,.5-.44.56.56,0,0,0-.08-.81,1.93,1.93,0,0,0-.57-.33,5,5,0,0,0-1.61-.33,11.77,11.77,0,0,0-4.64.57L39.81,40l-4,1.41A.55.55,0,0,1,35.54,41.47Z"/><path class="cls-1" d="M21.43,40.52a.42.42,0,0,1,0,.22V45.5a.38.38,0,0,0,0,.1c0,.12-.05.17-.17.19l-.92.15a32.71,32.71,0,0,1-6,.4A33.14,33.14,0,0,1,10.51,46a34.93,34.93,0,0,1-5.7-1.33,16.09,16.09,0,0,1-2.13-.81,6.91,6.91,0,0,1-1.48-1,3.67,3.67,0,0,1-.87-1.12,2.15,2.15,0,0,1,.18-2.26,3.16,3.16,0,0,1,.82-.81A15.49,15.49,0,0,1,4,37.18a41.07,41.07,0,0,1,3.86-1.5L21.18,31l.22-.07c.07.05.05.11.05.16,0,1.84,0,3.68,0,5.52,0,.22,0,.19-.22.28L12.45,40l-1.51.54a4.49,4.49,0,0,0-1,.51,1.5,1.5,0,0,0-.43.4.55.55,0,0,0,.08.76,1.43,1.43,0,0,0,.49.32,4.07,4.07,0,0,0,1.29.32,11.25,11.25,0,0,0,5-.51c1.6-.55,3.18-1.15,4.77-1.72A.79.79,0,0,1,21.43,40.52Z"/></svg>