<svg id="Capa_1" data-name="Capa 1" xmlns="http://www.w3.org/2000/svg" viewBox="0 0 208.69 36"><defs><style>.cls-1{fill:#414042;}</style></defs><path class="cls-1" d="M0,16.74l.6,0H61.8c.73,0,.63.08.63-.61,0-4.35,0-8.7,0-13,0-.36-.06-.48-.46-.48H.39L0,2.61C0,1.82,0,1,0,.23,0,0,0,0,.22,0H65c0,1.86,0,3.73,0,5.59V18.69c0,.65.08.58-.58.58H3.21c-.7,0-.63-.1-.63.62q0,7.82,0,15.61c0,.4-.11.51-.5.49C1.39,36,.7,36,0,36Z"/><path class="cls-1" d="M208.69,0c0,.19,0,.37,0,.56V18.69c0,.67.06.58-.57.58H146.83c-.69,0-.62-.1-.62.63,0,5.18,0,10.37,0,15.56,0,.44-.12.57-.55.53a11.6,11.6,0,0,0-1.56,0c-.35,0-.48-.07-.47-.44,0-1,0-1.94,0-2.91V17.3c0-.65-.09-.58.57-.58h61.21c.65,0,.65,0,.65-.67V3.17c0-.65.11-.58-.61-.58H144.31c-.66,0-.66,0-.66-.67s0-1.27,0-1.91Z"/><path class="cls-1" d="M134,0c0,.74,0,1.47,0,2.21,0,.28-.08.4-.37.37a1.93,1.93,0,0,0-.34,0H101.44c-.58,0-.58,0-.58.57V35.41c0,.67.06.57-.58.57H65.55c-.42,0-.58-.08-.54-.53a16.83,16.83,0,0,0,0-1.74c0-.24.07-.35.32-.32a2,2,0,0,0,.35,0q16,0,31.95,0c.44,0,.53-.12.53-.55q0-16.42,0-32.86Z"/></svg>