<svg id="Capa_1" data-name="Capa 1" xmlns="http://www.w3.org/2000/svg" viewBox="0 0 142.45 32.48"><defs><style>.cls-1{fill:#414042;}</style></defs><path class="cls-1" d="M1,23.41c0-1.36,0-2.73,0-4.09,0-.21.06-.28.28-.28.86,0,1.72,0,2.58,0,.13,0,.26,0,.27.18A4.52,4.52,0,0,0,6,22.56,9.71,9.71,0,0,0,9.7,24.37a21.57,21.57,0,0,0,6.92.87,14.12,14.12,0,0,0,4.83-1.07,2.51,2.51,0,0,0,1.49-1.48,2,2,0,0,0-1.17-2.62,10,10,0,0,0-2.53-.6c-2.55-.37-5.12-.55-7.68-.9a43.52,43.52,0,0,1-5.66-1,8.31,8.31,0,0,1-4.06-2.33,5.74,5.74,0,0,1,.92-8.63A13.88,13.88,0,0,1,7.56,4.5,23.4,23.4,0,0,1,23.13,5.91c.18.08.35.18.53.25a.47.47,0,0,0,.68-.47,4.14,4.14,0,0,0,0-.61c0-.19.06-.23.24-.23.88,0,1.76,0,2.64,0,.23,0,.25.08.25.27V9.29c0,1,0,1.92,0,2.89,0,.2,0,.29-.27.28q-1.15,0-2.31,0c-.13,0-.22,0-.26-.17a5.37,5.37,0,0,0-3.15-3.64,16.46,16.46,0,0,0-4.84-1.39,20.07,20.07,0,0,0-6.56.15A7.38,7.38,0,0,0,7.21,8.47a2,2,0,0,0-1,1.79A1.47,1.47,0,0,0,7,11.45,4.71,4.71,0,0,0,8.75,12c1.92.32,3.86.46,5.79.68a59.05,59.05,0,0,1,8.06,1.28,10.58,10.58,0,0,1,4.08,1.89,6.24,6.24,0,0,1,1.17,8.53,7.68,7.68,0,0,1-2.71,2.12,18.45,18.45,0,0,1-5.9,1.76,22.26,22.26,0,0,1-6,.11,28.89,28.89,0,0,1-7.81-2.07c-.71-.3-1-.14-1,.63,0,.23,0,.46,0,.69s-.06.2-.21.2c-1,0-2,0-3,0-.22,0-.23-.11-.23-.28Z"/><path class="cls-1" d="M97,18.88v-.36c-.06-3.06-.11-6.11-.17-9.16V9.27c0-.93-.41-1.33-1.36-1.35s-1.72,0-2.58,0c-.46,0-.46,0-.46-.48,0-.68,0-1.37,0-2.05,0-.2.06-.25.25-.25q6.27,0,12.54,0c.17,0,.25,0,.24.23,0,.78,0,1.55,0,2.33,0,.17,0,.22-.21.22h-2.65c-1,0-1.37.3-1.36,1.36,0,2.19,0,4.38.07,6.57.05,3.73.09,7.46.15,11.19,0,.22,0,.28-.27.28q-2,0-3.93,0a.65.65,0,0,1-.47-.18L86.11,17.58l-6.39-5.69c-.06-.06-.11-.14-.22-.16s0,.16,0,.24q0,5.35,0,10.72c0,.3,0,.61,0,.91a.92.92,0,0,0,.92.93,10.84,10.84,0,0,0,1.14,0h2.09c.21,0,.26.06.26.26q0,1.13,0,2.25c0,.19,0,.26-.25.26q-6.15,0-12.31,0c-.2,0-.26-.06-.25-.25q0-1.14,0-2.28c0-.2.06-.24.25-.24H74c.8,0,1.14-.31,1.21-1.12a5.52,5.52,0,0,0,0-.58v-13c0-.17,0-.33,0-.5A1.37,1.37,0,0,0,73.9,8a7.88,7.88,0,0,0-1.28,0H71.09c-.13,0-.2,0-.2-.18,0-.8,0-1.61,0-2.41,0-.22.12-.19.25-.19h3.23c2.35,0,4.71,0,7.06,0a.84.84,0,0,1,.62.23L96,17.93Z"/><path class="cls-1" d="M50.67,28.69a21.71,21.71,0,0,1-9-1.89,13.43,13.43,0,0,1-5.3-4.07,10.46,10.46,0,0,1-2.1-5.66,10.83,10.83,0,0,1,2.25-7.56,12.31,12.31,0,0,1,4.31-3.43A21.9,21.9,0,0,1,47.86,4a24.1,24.1,0,0,1,9.56.63,15.15,15.15,0,0,1,7.19,4.2A10.27,10.27,0,0,1,67.4,15a11,11,0,0,1-3,8.85,13.85,13.85,0,0,1-5.35,3.44A23.35,23.35,0,0,1,50.67,28.69ZM50.85,7a10.54,10.54,0,0,0-3.23.47,8.52,8.52,0,0,0-5.34,4.3,9.53,9.53,0,0,0-.91,6A8.33,8.33,0,0,0,45.53,24a10.56,10.56,0,0,0,8.54.91,8.52,8.52,0,0,0,5.53-4.67,9.6,9.6,0,0,0,.64-6.05,8.27,8.27,0,0,0-2.85-4.94A10.08,10.08,0,0,0,50.85,7Z"/><path class="cls-1" d="M115.84,5.14c2.44,0,4.89,0,7.34,0,.24,0,.31.06.31.3,0,.74,0,1.47,0,2.2,0,.21,0,.29-.28.28-.47,0-.94,0-1.41,0-.25,0-.5,0-.62.27s0,.46.17.65l3.94,4.71c.36.44.73.86,1.08,1.31.16.21.25.18.41,0q2.55-3,5.11-6a.54.54,0,0,0,.12-.63.54.54,0,0,0-.57-.31h-1.56c-.19,0-.27,0-.27-.25q0-1.14,0-2.28c0-.19.06-.25.25-.25q6,0,12,0c.2,0,.25.06.25.25q0,1.14,0,2.28c0,.22-.07.25-.27.25-.86,0-1.72,0-2.58,0a2.5,2.5,0,0,0-2,.9c-2,2.29-4,4.56-6,6.85l-2.47,2.81a.67.67,0,0,0-.2.48c0,1.53,0,3.07,0,4.6,0,.66.32,1,1,1,1,0,2,0,3,0,.23,0,.29.07.29.3,0,.72,0,1.44,0,2.17,0,.26-.09.31-.33.31H117.93c-.2,0-.25-.06-.25-.25q0-1.14,0-2.28c0-.2.07-.25.26-.24,1,0,2,0,3,0a.84.84,0,0,0,.9-.85c.06-.78,0-1.56,0-2.33s0-1.41,0-2.11a1,1,0,0,0-.29-.73c-1.23-1.39-2.45-2.79-3.68-4.19l-4.49-5.07a3.32,3.32,0,0,0-2.28-1.31c-.66,0-1.33,0-2,0h-.75c-.12,0-.16,0-.16-.16V5.31c0-.19.12-.17.24-.17h7.4Z"/></svg>